<svg xmlns="http://www.w3.org/2000/svg" width="61.464" height="40.192" viewBox="0 0 16.262 10.634"><path d="M26.557 108.285q-.068 0-.068-.102t.068-.102q.576 0 .864-.084.304-.102.457-.339.152-.237.254-.745l1.388-7.84q.068-.44.068-.542 0-.373-.254-.491-.237-.136-.897-.136-.068 0-.068-.101 0-.102.068-.102l.745.017q.643.034 1.033.034.27 0 .508-.017.254-.017.44-.034.49-.05.863-.05 1.22 0 1.83.457.609.44.609 1.303 0 .254-.051.56-.17.88-.779 1.608-.593.711-1.473 1.118-.88.406-1.829.406-.406 0-.643-.034l.05-.44q.458.084.915.084 1.185 0 1.795-.508.61-.508.846-1.693.102-.508.102-.897 0-1.71-1.727-1.71-.424 0-.627.067-.203.05-.338.305-.119.254-.22.83l-1.389 7.806q-.068.44-.068.559 0 .355.237.49.237.12.898.12.067 0 .067.1 0 .103-.05.103-.491 0-.762-.017l-1.05-.017-1.033.017q-.288.017-.779.017zm7.874 0q-.406 0-1.253-1.44-.847-1.456-1.897-4.013l.813-.288q.965 2.117 1.643 3.302.694 1.185 1.287 1.71.592.525 1.236.525.067 0 .067.102t-.067.102z" aria-label="R" style="font-size:16.9333px;font-family:&quot;Cormorant Garamond&quot;;-inkscape-font-specification:&quot;Cormorant Garamond&quot;;fill:#e54db2;fill-opacity:1;stroke-width:.264583" transform="translate(-20.065 -97.65)"/><path d="M23.595 108.173c-.94-.064-1.863-.24-2.597-1.122-.627-.802-.933-1.816-.933-3.026 0-.338.035-.736.106-1.194.17-1.014.468-1.88.984-2.702.44-.7.995-1.391 1.704-1.826a4.178 4.178 0 0 1 2.216-.64c.747.01 1.566.182 1.967.29.375.121.676.215.971.404.045.028.095.06.118.108.035.074.025.126.015.246l-.355 1.94c-.01.043-.04.065-.09.065-.05 0-.075-.022-.075-.065.064-1.079-.08-1.652-.532-2.045-.442-.392-1.505-.575-2.284-.52-.64.044-1.267.324-1.798.685-.483.33-.9.785-1.183 1.296-.387.698-.516 1.423-.646 2.306-.07.447-.115.89-.115 1.358 0 .818.15 1.522.427 2.224.202.511.463 1.037.881 1.393.336.285.777.473 1.215.517.657.065 1.34-.132 1.941-.4.403-.18.797-.52 1.25-1.7.02-.021.036-.032.046-.032.03 0 .055.01.075.033.03.021.04.043.03.065 0 0-.32 1.4-.38 1.572-.06.195-.138.227-.269.303a.925.925 0 0 1-.24.115c-.905.243-1.755.399-2.449.352z" aria-label="C" style="font-size:16.9333px;font-family:&quot;Cormorant Garamond&quot;;-inkscape-font-specification:&quot;Cormorant Garamond&quot;;font-variation-settings:normal;opacity:1;vector-effect:none;fill:#1ab2b2;fill-opacity:1;stroke-width:.245156;stroke-linecap:butt;stroke-linejoin:miter;stroke-miterlimit:4;stroke-dasharray:none;stroke-dashoffset:0;stroke-opacity:1;-inkscape-stroke:none;stop-color:#000;stop-opacity:1" transform="translate(-20.065 -97.65)"/></svg>