<?xml version="1.0" encoding="UTF-8" standalone="no"?>
<svg
   version="1.1"
   width="144"
   height="143.83237"
   viewBox="0 0 144 143.83237"
   id="svg1"
   sodipodi:docname="instagram.svg"
   inkscape:version="1.3.1 (6036e22fae, 2023-11-19, custom)"
   xmlns:inkscape="http://www.inkscape.org/namespaces/inkscape"
   xmlns:sodipodi="http://sodipodi.sourceforge.net/DTD/sodipodi-0.dtd"
   xmlns="http://www.w3.org/2000/svg"
   xmlns:svg="http://www.w3.org/2000/svg">
  <defs
     id="defs1" />
  <sodipodi:namedview
     id="namedview1"
     pagecolor="#ffffff"
     bordercolor="#111111"
     borderopacity="1"
     inkscape:showpageshadow="0"
     inkscape:pageopacity="0"
     inkscape:pagecheckerboard="1"
     inkscape:deskcolor="#d1d1d1"
     inkscape:zoom="0.66328829"
     inkscape:cx="256.29881"
     inkscape:cy="414.60102"
     inkscape:window-width="1846"
     inkscape:window-height="1016"
     inkscape:window-x="0"
     inkscape:window-y="0"
     inkscape:window-maximized="1"
     inkscape:current-layer="svg1" />
  <g
     id="g1"
     transform="matrix(0,-0.16763679,0.16763679,0,13.327125,143.74855)"
     style="fill:#ffffff;fill-opacity:0.89999998">
    <path
       stroke="#000000"
       d="m 571,350 q 0,59 -41,101 -41,42 -101,42 -60,0 -101,-42 -41,-42 -42,-101 -1,-59 42,-101 43,-42 101,-42 58,0 101,42 43,42 41,101 z m 77,0 q 0,-91 -64,-156 -64,-65 -155,-64 -91,1 -156,64 -65,63 -64,156 1,93 64,156 63,63 156,64 93,1 155,-64 62,-65 64,-156 z m 61,229 q 0,-21 -15,-36 -15,-15 -37,-15 -22,0 -36,15 -14,15 -15,36 -1,21 15,36 16,15 36,15 20,0 37,-15 17,-15 15,-36 z M 429,702 q -4,0 -43,0 -39,0 -59,0 -20,0 -54,-2 -34,-2 -57,-5 -23,-3 -40,-11 -28,-11 -49,-32 -21,-21 -33,-49 -6,-16 -10,-40 -4,-24 -6,-58 -2,-34 -1,-53 1,-19 0,-59 -1,-40 0,-43 1,-3 0,-43 -1,-40 0,-59 1,-19 1,-53 0,-34 6,-58 6,-24 10,-40 12,-28 33,-49 21,-21 49,-32 16,-6 40,-11 24,-5 57,-5 33,0 54,-2 21,-2 59,0 38,2 43,0 5,-2 42,0 37,2 59,0 22,-2 54,2 32,4 58,5 26,1 39,11 28,11 50,32 22,21 32,49 6,16 10,40 4,24 6,58 2,34 1,53 -1,19 0,59 1,40 0,43 -1,3 0,43 1,40 0,59 -1,19 -1,53 0,34 -6,58 -6,24 -10,40 -11,28 -32,49 -21,21 -50,32 -16,6 -39,11 -23,5 -58,5 -35,0 -54,2 -19,2 -59,0 -40,-2 -42,0 z M 857,350 Q 857,222 854,173 849,57 785,-7 721,-71 606,-76 556,-79 429,-79 302,-79 252,-76 136,-70 72,-7 8,56 3,173 0,222 0,350 q 0,128 3,177 5,116 69,180 64,64 180,69 49,3 177,3 128,0 177,-3 116,-6 179,-69 63,-63 69,-180 3,-49 3,-177 z"
       horiz-adv-x="857.1"
       id="path1"
       style="fill:#ffffff;fill-opacity:0.89999998" />
  </g>
</svg>
